<svg width="275" height="284" viewBox="0 0 275 284" fill="none" xmlns="http://www.w3.org/2000/svg">
<path opacity="0.02" d="M124.309 8.79999C115.243 9.33332 108.709 10.4 104.709 12C100.709 13.6 97.9094 16.6667 96.3094 21.2C94.976 25.7333 94.3094 33.0666 94.3094 43.2V241.6C94.3094 251.733 94.976 259.067 96.3094 263.6C97.9094 268.133 100.709 271.2 104.709 272.8C108.709 274.4 115.243 275.467 124.309 276V284C109.909 283.2 89.776 282.8 63.9094 282.8C35.376 282.8 14.3094 283.2 0.709376 284V276C9.50938 275.467 15.9094 274.4 19.9094 272.8C24.176 271.2 26.976 268.133 28.3094 263.6C29.9094 259.067 30.7094 251.733 30.7094 241.6V43.2C30.7094 33.0666 29.9094 25.7333 28.3094 21.2C26.976 16.6667 24.176 13.6 19.9094 12C15.9094 10.4 9.50938 9.33332 0.709376 8.79999V0.799998C14.3094 1.59999 35.376 1.99998 63.9094 1.99998C89.776 1.99998 109.909 1.59999 124.309 0.799998V8.79999ZM274.7 8.79999C265.633 9.33332 259.1 10.4 255.1 12C251.1 13.6 248.3 16.6667 246.7 21.2C245.367 25.7333 244.7 33.0666 244.7 43.2V241.6C244.7 251.733 245.367 259.067 246.7 263.6C248.3 268.133 251.1 271.2 255.1 272.8C259.1 274.4 265.633 275.467 274.7 276V284C260.3 283.2 240.167 282.8 214.3 282.8C185.767 282.8 164.7 283.2 151.1 284V276C159.9 275.467 166.3 274.4 170.3 272.8C174.567 271.2 177.367 268.133 178.7 263.6C180.3 259.067 181.1 251.733 181.1 241.6V43.2C181.1 33.0666 180.3 25.7333 178.7 21.2C177.367 16.6667 174.567 13.6 170.3 12C166.3 10.4 159.9 9.33332 151.1 8.79999V0.799998C164.7 1.59999 185.767 1.99998 214.3 1.99998C240.167 1.99998 260.3 1.59999 274.7 0.799998V8.79999Z" fill="white"/>
</svg>
